<svg id="Layer_1" data-name="Layer 1" xmlns="http://www.w3.org/2000/svg" viewBox="0 0 256 256"><defs><style>.cls-1{fill:#231f20;}</style></defs><title>yoga high lunge</title><path class="cls-1" d="M235.47,203.19h-32.6v-42a3.5,3.5,0,0,0-3.5-3.51H153V105.9a19.84,19.84,0,0,0,0-39.06V49.31a3.5,3.5,0,0,0-7,0V66.84a19.84,19.84,0,0,0,0,39.06v52.79L59.29,190A3.5,3.5,0,0,0,57,193.33v9.86H20.53a3.5,3.5,0,0,0,0,7H235.47a3.5,3.5,0,0,0,0-7ZM162.36,86.37A12.82,12.82,0,0,1,153,98.67v-13a3.06,3.06,0,0,0,1.85.68,3.12,3.12,0,1,0,0-6.23,3.05,3.05,0,0,0-1.85.67V74.06A12.83,12.83,0,0,1,162.36,86.37Zm-25.7,0A12.83,12.83,0,0,1,146,74.06V98.67A12.82,12.82,0,0,1,136.66,86.37ZM64,195.79l86.14-31.14h45.75v38.54H64Z"/></svg>