<svg id="Layer_1" data-name="Layer 1" xmlns="http://www.w3.org/2000/svg" viewBox="0 0 256 256"><defs><style>.cls-1{fill:#231f20;}</style></defs><title>yoga pigeon</title><path class="cls-1" d="M235.47,183.65h-49a3.46,3.46,0,0,0,.79-3.41l-.51-1.57,19.94-3.62a3.51,3.51,0,0,0,.14-6.87l-25.33-5.69L165.3,112.56v-6.18c.29,0,.58,0,.88,0a20.85,20.85,0,1,0-7.76-.54,3.32,3.32,0,0,0-.13.61v52.5l-37.79,9.2H49.93a3.5,3.5,0,1,0,0,7h71a3.31,3.31,0,0,0,.83-.1l40.08-9.75,14.24,3.2,1.55,4.76-16.45,3a3.5,3.5,0,0,0,.62,7,3.36,3.36,0,0,0,.63-.06l17.38-3.16.8,2.47a3.41,3.41,0,0,0,.77,1.25H20.53a3.51,3.51,0,0,0,0,7H235.47a3.51,3.51,0,0,0,0-7ZM150,87.7a13.6,13.6,0,0,1,13.48-15.35,13.6,13.6,0,0,1,13.43,11.8A13.57,13.57,0,0,1,150,87.7Zm15.27,71.15v-23.6l8.26,25.46ZM184,170.23l4.46,1-3.91.71Z"/><path class="cls-1" d="M165.85,88.33a3.64,3.64,0,1,0-2.93-4.23A3.63,3.63,0,0,0,165.85,88.33Z"/></svg>