<svg id="Layer_1" data-name="Layer 1" xmlns="http://www.w3.org/2000/svg" viewBox="0 0 256 256"><defs><style>.cls-1{fill:#231f20;}</style></defs><title>yoga goddess 1</title><path class="cls-1" d="M235.47,208.72H20.53a3.5,3.5,0,0,0,0,7H235.47a3.5,3.5,0,0,0,0-7Z"/><path class="cls-1" d="M123.84,95.82a2.91,2.91,0,1,0-4.1-.27A2.91,2.91,0,0,0,123.84,95.82Z"/><path class="cls-1" d="M135,95.82a2.9,2.9,0,1,0-4.1-.27A2.91,2.91,0,0,0,135,95.82Z"/><path class="cls-1" d="M72.61,207.48a3.51,3.51,0,0,0,3.5-3.51V167.56L128,159.94l51.89,7.62V204a3.5,3.5,0,1,0,7,0V164.53a3.5,3.5,0,0,0-3-3.47L131,153.31V131.85h14.12a3.5,3.5,0,0,0,3.42-2.72l19.29-84.57A3.5,3.5,0,1,0,161,43l-18.68,81.85H131V114.54a20.72,20.72,0,1,0-24.18-21.81c0,.4,0,.8,0,1.19L95.19,43a3.5,3.5,0,0,0-6.83,1.56l19.3,84.57a3.5,3.5,0,0,0,3.41,2.72H124v21.6l-51.9,7.61a3.51,3.51,0,0,0-3,3.47V204A3.51,3.51,0,0,0,72.61,207.48ZM118.48,83.8a13.58,13.58,0,0,1,9-3.39l.94,0a13.72,13.72,0,1,1-10,3.36ZM109,103.32a20.69,20.69,0,0,0,15,11.23v10.3H113.87Z"/></svg>