<svg id="Layer_1" data-name="Layer 1" xmlns="http://www.w3.org/2000/svg" viewBox="0 0 256 256"><defs><style>.cls-1{fill:#231f20;}</style></defs><title>yoga warrior 1</title><path class="cls-1" d="M235.47,203.19h-32.6v-42a3.5,3.5,0,0,0-3.5-3.51H153V105.9a19.84,19.84,0,0,0,0-39.06V49.31a3.51,3.51,0,0,0-7,0V66.84a19.84,19.84,0,0,0,0,39.06V159L55.82,203.19H20.53a3.5,3.5,0,0,0,0,7H235.47a3.5,3.5,0,0,0,0-7ZM162.36,86.37A12.84,12.84,0,0,1,153,98.68v-13a3.07,3.07,0,0,0,1.85.67,3.12,3.12,0,0,0,0-6.23,3,3,0,0,0-1.85.67V74.06A12.83,12.83,0,0,1,162.36,86.37Zm-25.7,0A12.83,12.83,0,0,1,146,74.06V98.68A12.84,12.84,0,0,1,136.66,86.37Zm13.67,78.28h45.54v38.54H71.73Z"/></svg>