<svg id="Layer_1" data-name="Layer 1" xmlns="http://www.w3.org/2000/svg" viewBox="0 0 256 256"><defs><style>.cls-1{fill:#231f20;}</style></defs><title>yoga half moon</title><path class="cls-1" d="M235.47,194.58H20.53a3.51,3.51,0,0,0,0,7H235.47a3.51,3.51,0,0,0,0-7Z"/><path class="cls-1" d="M203.63,122.17a3.39,3.39,0,1,0-4.79.16A3.4,3.4,0,0,0,203.63,122.17Z"/><path class="cls-1" d="M37.61,86.88,114.7,108v78.76a3.5,3.5,0,1,0,7,0V109.93l41.75,11.44v65.4a3.5,3.5,0,1,0,7,0V123.29l7.92,2.17c0,.56,0,1.12,0,1.68a21.32,21.32,0,1,0,1.48-8.55L170.45,116V57.91a3.5,3.5,0,0,0-7,0V114.1l-124-34a3.5,3.5,0,1,0-1.86,6.75ZM189.2,116.66a14.19,14.19,0,0,1,10-4.53h.49a14.32,14.32,0,1,1-10.46,4.54Z"/></svg>