<svg id="Layer_1" data-name="Layer 1" xmlns="http://www.w3.org/2000/svg" viewBox="0 0 256 256"><defs><style>.cls-1{fill:#231f20;}</style></defs><title>yoga lizard</title><path class="cls-1" d="M235.47,156.7H187.59v-3.28h26.82a3.51,3.51,0,1,0,0-7H187.59V122l6.81-1a21.6,21.6,0,0,0,3,5.52,21.15,21.15,0,0,0,14.09,8.23,20.53,20.53,0,0,0,2.91.2,21.35,21.35,0,0,0,21.1-18.42,21.31,21.31,0,1,0-42.41-2.42l-5.53.81V95.8a3.5,3.5,0,0,0-5.13-3.1L79.79,146.41h-56a3.51,3.51,0,0,0,0,7H80.65s.09,0,.14,0a3.29,3.29,0,0,0,.68-.14,3.69,3.69,0,0,0,.67-.19l.14,0,41.36-21.64,46.25-6.8v25.33a3.5,3.5,0,0,0,3.5,3.51h7.2v3.28H20.53a3.5,3.5,0,0,0,0,7H235.47a3.5,3.5,0,0,0,0-7Zm-35.24-45A14.32,14.32,0,1,1,203,122.26,14.36,14.36,0,0,1,200.23,111.67Zm-19.64-10.08v14.34l-38.13,5.6Zm-3.7,44.82V123.55l3.7-.54v23.4Z"/><path class="cls-1" d="M216.52,123.22a3.4,3.4,0,1,0-2.9-3.83A3.41,3.41,0,0,0,216.52,123.22Z"/></svg>