<svg id="Layer_1" data-name="Layer 1" xmlns="http://www.w3.org/2000/svg" viewBox="0 0 256 256"><defs><style>.cls-1{fill:#231f20;}</style></defs><title>yoga warrior 2</title><path class="cls-1" d="M235.47,194.17H164.6V150.33a3.5,3.5,0,0,0-3.5-3.5H119.16l28.26-37.57h62a3.5,3.5,0,1,0,0-7H152.69l6.14-8.17a19.88,19.88,0,1,0-6.67-2.78l-8.24,11H78a3.5,3.5,0,0,0,0,7h60.61L74.77,194.17H20.53a3.51,3.51,0,0,0,0,7H235.47a3.51,3.51,0,0,0,0-7ZM151.13,69.71A12.85,12.85,0,1,1,158,86.54,12.75,12.75,0,0,1,151.13,69.71Zm-37.24,84.13H157.6v40.33H83.54Z"/><path class="cls-1" d="M167.92,76.75a3.12,3.12,0,1,0-1.66-4.08A3.11,3.11,0,0,0,167.92,76.75Z"/></svg>