<svg id="Layer_1" data-name="Layer 1" xmlns="http://www.w3.org/2000/svg" viewBox="0 0 256 256"><defs><style>.cls-1{fill:#231f20;}</style></defs><title>yoga happy baby</title><path class="cls-1" d="M235.47,176.59H20.53a3.51,3.51,0,0,0,0,7H235.47a3.51,3.51,0,0,0,0-7Z"/><path class="cls-1" d="M179.53,145a3.74,3.74,0,1,0-1.46-5.09A3.74,3.74,0,0,0,179.53,145Z"/><path class="cls-1" d="M54.84,172.29H181.47a23.15,23.15,0,1,0-6.36-45.4,23.16,23.16,0,0,0-10.2,38.39h-8.13l-18.31-36.62V87.22h2.93a3.5,3.5,0,0,0,0-7h-2.93V75.9a3.51,3.51,0,0,0-7,0v4.32h-7a3.5,3.5,0,0,0-3.5,3.5v59.2L53.73,165.46a3.51,3.51,0,0,0,1.11,6.83Zm112.54-31A16.14,16.14,0,1,1,166,153.59,16.05,16.05,0,0,1,167.38,141.32Zm-41.83,7.44a3.51,3.51,0,0,0,2.39-3.32V87.22h3.52v42.26a3.55,3.55,0,0,0,.37,1.57l17.11,34.23H76.3Z"/></svg>