<svg id="Layer_1" data-name="Layer 1" xmlns="http://www.w3.org/2000/svg" viewBox="0 0 256 256"><defs><style>.cls-1{fill:#231f20;}</style></defs><title>yoga boat 2</title><path class="cls-1" d="M235.47,174.09H126.75L202,90.88a3.5,3.5,0,1,0-5.19-4.7l-29,32.08H88.1l-4.24-6.94a19.83,19.83,0,1,0-10.93,3.3,20.17,20.17,0,0,0,4.42-.51l36.69,60H20.53a3.5,3.5,0,0,0,0,7H235.47a3.5,3.5,0,0,0,0-7ZM60.07,94.76a12.86,12.86,0,1,1,12.86,12.86A12.87,12.87,0,0,1,60.07,94.76Zm101.4,30.51-41.21,45.56L92.39,125.27Z"/><path class="cls-1" d="M78.28,88.53a3.12,3.12,0,1,0,3.12,3.12A3.12,3.12,0,0,0,78.28,88.53Z"/></svg>