<svg id="Layer_1" data-name="Layer 1" xmlns="http://www.w3.org/2000/svg" viewBox="0 0 256 256"><defs><style>.cls-1{fill:#231f20;}</style></defs><title>yoga downward facing dog</title><path class="cls-1" d="M235.47,168.16h-24.8a.91.91,0,0,0-.08-.13l-18.05-17.94A18.05,18.05,0,0,0,176,124.56a17.79,17.79,0,0,0-7.5,1.68L123.88,81.86a3.4,3.4,0,0,0-2.61-1,3.48,3.48,0,0,0-2.52,1.23L45.29,168.16H20.53a3.5,3.5,0,0,0,0,7H235.47a3.5,3.5,0,0,0,0-7ZM176,131.57a11.13,11.13,0,0,1,11.12,11.11,11.51,11.51,0,0,1-.19,1.87L174.1,131.76A11.29,11.29,0,0,1,176,131.57Zm-8.28,3.77,7.4,7.35a3.06,3.06,0,0,0-1.42,1.73,3.11,3.11,0,0,0,2,3.92,3.07,3.07,0,0,0,3.61-1.47l4.07,4a11,11,0,0,1-7.39,2.87,11.06,11.06,0,0,1-8.28-18.45ZM121.63,89.49l41.17,40.92a18.06,18.06,0,0,0,25.6,25.45l12.38,12.3H54.5Z"/></svg>