<svg id="Layer_1" data-name="Layer 1" xmlns="http://www.w3.org/2000/svg" viewBox="0 0 256 256"><defs><style>.cls-1{fill:#231f20;}</style></defs><title>yoga balancing table</title><path class="cls-1" d="M235.47,167.7H20.53a3.51,3.51,0,0,0,0,7H235.47a3.51,3.51,0,0,0,0-7Z"/><path class="cls-1" d="M35.7,108.86h77.43V156.5H68.82a3.51,3.51,0,0,0,0,7h47.82a3.5,3.5,0,0,0,3.5-3.5V108.86h28.57v52a3.5,3.5,0,0,0,7,0V114.46a17.35,17.35,0,0,0,7.82,1.92,17.54,17.54,0,0,0,14.36-7.52h42.42a3.5,3.5,0,0,0,0-7H180.77a17.78,17.78,0,0,0,.3-3,17.55,17.55,0,0,0-35.09,0,17.78,17.78,0,0,0,.31,3H35.7a3.5,3.5,0,1,0,0,7ZM163.53,88.3A10.54,10.54,0,1,1,153,98.83,10.55,10.55,0,0,1,163.53,88.3Z"/><path class="cls-1" d="M167,105.36a2.77,2.77,0,1,0-2.77-2.77A2.77,2.77,0,0,0,167,105.36Z"/></svg>