<svg id="Layer_1" data-name="Layer 1" xmlns="http://www.w3.org/2000/svg" viewBox="0 0 256 256"><defs><style>.cls-1{fill:#231f20;}</style></defs><title>yoga tree 2</title><path class="cls-1" d="M235.47,198.07H131.07v-38.4l34-18.22a3.5,3.5,0,0,0-1.66-6.59H131.07V121.25h32.29a3.5,3.5,0,0,0,1.92-6.43L131.07,92.41V86.35a17.68,17.68,0,0,0,8.68-4.14,17.85,17.85,0,1,0-25.19-1.69,17.64,17.64,0,0,0,9.5,5.61v6.31l-33.37,22.4a3.5,3.5,0,0,0,2,6.41h31.42v76.82H20.53a3.51,3.51,0,0,0,0,7H235.47a3.51,3.51,0,0,0,0-7Zm-83.85-83.82H131.07V100.78ZM120.86,60.6a10.84,10.84,0,1,1-1,15.31A10.82,10.82,0,0,1,120.86,60.6Zm-16.72,53.65,19.92-13.38v13.38Zm45.28,27.62-18.35,9.85v-9.85Z"/><path class="cls-1" d="M121.76,66.54a2.42,2.42,0,1,0,3.41.23A2.42,2.42,0,0,0,121.76,66.54Z"/><path class="cls-1" d="M134.25,70.19a2.42,2.42,0,1,0-3.42-.23A2.43,2.43,0,0,0,134.25,70.19Z"/></svg>