<svg id="Layer_1" data-name="Layer 1" xmlns="http://www.w3.org/2000/svg" viewBox="0 0 256 256"><defs><style>.cls-1{fill:#231f20;}</style></defs><title>yoga bound angle 1</title><path class="cls-1" d="M235.47,192.63H20.53a3.51,3.51,0,0,0,0,7H235.47a3.51,3.51,0,0,0,0-7Z"/><path class="cls-1" d="M128,100.35a22,22,0,1,0-16.58-7.51A21.94,21.94,0,0,0,128,100.35Zm-9.88-33.28A15,15,0,1,1,113,77.35,14.9,14.9,0,0,1,118.13,67.07Z"/><path class="cls-1" d="M123.74,80.4a3.38,3.38,0,1,0-4.77-.32A3.37,3.37,0,0,0,123.74,80.4Z"/><path class="cls-1" d="M136.71,80.4a3.38,3.38,0,1,0-4.77-.32A3.37,3.37,0,0,0,136.71,80.4Z"/><path class="cls-1" d="M70.43,173.64l50.27,10.1a4,4,0,0,0,.69.07,3.51,3.51,0,0,0,.69-6.94l-34.88-7L106,165.24v2.16a3.51,3.51,0,0,0,7,0v-3.88l15-3.68,16.43,4v3.53a3.5,3.5,0,1,0,7,0v-1.81l17.37,4.27-34.88,7a3.5,3.5,0,0,0,.69,6.94,4.14,4.14,0,0,0,.69-.07l50.27-10.1a3.51,3.51,0,0,0,.14-6.84l-34.28-8.42v-48a3.51,3.51,0,0,0-2.66-3.41c-20.52-5-39.38-.19-40.17,0a3.51,3.51,0,0,0-2.61,3.39V158l-35.7,8.77a3.51,3.51,0,0,0,.14,6.84ZM113,113.2a85.29,85.29,0,0,1,31.43,0v43.48l-15.6-3.83h-.14a4,4,0,0,0-.69,0,3.84,3.84,0,0,0-.68,0h-.15L113,156.31Z"/></svg>