<svg id="Layer_1" data-name="Layer 1" xmlns="http://www.w3.org/2000/svg" viewBox="0 0 256 256"><defs><style>.cls-1{fill:#231f20;}</style></defs><title>yoga easy</title><path class="cls-1" d="M235.47,195.35H20.53a3.5,3.5,0,0,0,0,7H235.47a3.5,3.5,0,0,0,0-7Z"/><path class="cls-1" d="M128,103.44a24.87,24.87,0,1,0-18.78-8.5A24.82,24.82,0,0,0,128,103.44Zm-11.8-38.37a17.91,17.91,0,1,1-6.08,12.28A17.8,17.8,0,0,1,116.22,65.07Z"/><path class="cls-1" d="M123.44,80.66a3.61,3.61,0,1,0-5.1-.34A3.61,3.61,0,0,0,123.44,80.66Z"/><path class="cls-1" d="M137.32,80.66a3.61,3.61,0,1,0-5.1-.34A3.62,3.62,0,0,0,137.32,80.66Z"/><path class="cls-1" d="M71.88,170.68l4.11,1-.25.62a3.51,3.51,0,0,0,2,4.55,3.4,3.4,0,0,0,1.29.25,3.49,3.49,0,0,0,3.25-2.22l.6-1.52,30.37,7.42-14.43,3.53H79.72a3.51,3.51,0,1,0,0,7H99.21a3.85,3.85,0,0,0,.83-.1L128,184.4l28,6.86a3.85,3.85,0,0,0,.83.1h19.49a3.51,3.51,0,0,0,0-7H157.24l-14.52-3.55,30.43-7.44.6,1.53a3.5,3.5,0,1,0,6.51-2.58l-.24-.62,4.11-1a3.5,3.5,0,1,0-1.67-6.8l-5,1.23L158,116a3.52,3.52,0,0,0-2.62-2.16l-26.45-4.92a3.36,3.36,0,0,0-1,0,3.16,3.16,0,0,0-.87,0l-26.45,4.92A3.52,3.52,0,0,0,98,116L78.59,165.11l-5-1.23a3.5,3.5,0,1,0-1.66,6.8Zm32-50.35,24.17-4.5,24.17,4.5,18.38,46.46-23.27,5.68V132.71a3.51,3.51,0,0,0-7,0v41.48l-12.3,3-12.24-3V132.71a3.51,3.51,0,0,0-7,0v39.77l-23.27-5.69Z"/></svg>