<svg id="Layer_1" data-name="Layer 1" xmlns="http://www.w3.org/2000/svg" viewBox="0 0 256 256"><defs><style>.cls-1{fill:#231f20;}</style></defs><title>yoga dolphin</title><path class="cls-1" d="M235.47,167.72H58l55.08-77.2,36.24,43.71a18,18,0,1,0,23,27.76l2.1,2.54a3.52,3.52,0,0,0,2.7,1.26h27.46a3.5,3.5,0,0,0,0-7H178.79l-1.94-2.35a17.85,17.85,0,0,0,2.14-8.35A18.14,18.14,0,0,0,160.87,130a17.87,17.87,0,0,0-5.25.86l-40-48.28a3.42,3.42,0,0,0-2.82-1.27A3.5,3.5,0,0,0,110,82.75l-60.63,85H20.53a3.51,3.51,0,0,0,0,7H235.47a3.51,3.51,0,0,0,0-7Zm-74.6-8.52a11.07,11.07,0,0,1-7.09-19.6l6.85,8.25a3.09,3.09,0,0,0-2.07,2,3.12,3.12,0,0,0,2,3.92,3.06,3.06,0,0,0,3.65-1.54l3.67,4.42A11,11,0,0,1,160.87,159.2Zm0-22.23A11.13,11.13,0,0,1,172,148.09a11.5,11.5,0,0,1-.22,2.21l-11-13.31Z"/></svg>