<svg id="Layer_1" data-name="Layer 1" xmlns="http://www.w3.org/2000/svg" viewBox="0 0 256 256"><defs><style>.cls-1{fill:#231f20;}</style></defs><title>yoga supine twist 1</title><path class="cls-1" d="M149.27,74.16A21.31,21.31,0,1,0,130,86.37,21.34,21.34,0,0,0,149.27,74.16Zm-6.33-3a14.31,14.31,0,1,1-17.77-19.59,14.46,14.46,0,0,1,4.84-.84,14.33,14.33,0,0,1,12.93,20.43Z"/><path class="cls-1" d="M138.17,61.41a3.4,3.4,0,1,0,1.62,4.52A3.39,3.39,0,0,0,138.17,61.41Z"/><path class="cls-1" d="M204.06,89.29H179.87V31.36a3.51,3.51,0,0,0-3.5-3.51H83.63a3.51,3.51,0,0,0-3.5,3.51V89.29H51.94a3.5,3.5,0,0,0,0,7H80.13V224.64a3.51,3.51,0,0,0,3.5,3.51h92.74a3.51,3.51,0,0,0,3.5-3.51V153.51l3.88-5.75a3.51,3.51,0,0,0-2.9-5.47h-1v-46h24.19a3.5,3.5,0,0,0,0-7ZM87.13,34.86h85.73V89.29H87.13Zm85.73,186.28H87.13V96.29H126.5V145.8a3.5,3.5,0,0,0,3.5,3.5h42.86v2.06l-28,41.4a3.5,3.5,0,0,0,1,4.86,3.44,3.44,0,0,0,1.95.6,3.51,3.51,0,0,0,2.91-1.54l22.14-32.8Zm0-78.85H133.5v-46h39.36Z"/></svg>