<svg id="Layer_1" data-name="Layer 1" xmlns="http://www.w3.org/2000/svg" viewBox="0 0 256 256"><defs><style>.cls-1{fill:#231f20;}</style></defs><title>yoga cat</title><path class="cls-1" d="M235.47,163.4H20.53a3.51,3.51,0,0,0,0,7H235.47a3.51,3.51,0,0,0,0-7Z"/><path class="cls-1" d="M188.5,127h0a19.37,19.37,0,0,0,4.31.48,19.86,19.86,0,1,0-19.38-24.17A19.84,19.84,0,0,0,188.5,127Zm-8.23-22.17A12.85,12.85,0,1,1,190,120.15h0a12.84,12.84,0,0,1-9.75-15.34Z"/><path class="cls-1" d="M194,116.54a3.12,3.12,0,1,0-2.36-3.71A3.11,3.11,0,0,0,194,116.54Z"/><path class="cls-1" d="M46.83,156.55h51a3.51,3.51,0,0,0,3.51-3.51V102.5c5.93-4.2,32-20.07,61.9.08V153a3.51,3.51,0,1,0,7,0V100.75a3.5,3.5,0,0,0-1.48-2.86c-38.88-27.63-72.84-.12-73.18.16a3.52,3.52,0,0,0-1.26,2.7v48.79H46.83a3.51,3.51,0,1,0,0,7Z"/></svg>