<svg id="Layer_1" data-name="Layer 1" xmlns="http://www.w3.org/2000/svg" viewBox="0 0 256 256"><defs><style>.cls-1{fill:#231f20;}</style></defs><title>yoga camel 1</title><path class="cls-1" d="M235.47,180.61H20.53a3.5,3.5,0,0,0,0,7H235.47a3.5,3.5,0,1,0,0-7Z"/><path class="cls-1" d="M90.46,108.1q.53,0,1.05,0a19.68,19.68,0,0,0,17.35-27.14,78,78,0,0,1,17.76-2.31c-7.29,3.82-13.5,10.17-13.5,20.06V158a3.51,3.51,0,0,0,7,0V98.68c0-14.39,19.93-17.46,23.23-17.87,25.79,7.57,35,32,36.36,36v48.24H109.45a3.5,3.5,0,1,0,0,7h73.77a3.49,3.49,0,0,0,3.5-3.5v-52.3a3.55,3.55,0,0,0-.15-1c-4.23-13.8-17.36-34.12-41.59-41.12a3.1,3.1,0,0,0-.85-.26c-10.83-3-23.86-3.23-39.24.85a16.46,16.46,0,0,0-1.13-1.23,19.86,19.86,0,1,0-13.3,34.61ZM80.92,79.64a12.77,12.77,0,0,1,8.88-4.23c.23,0,.46,0,.69,0a12.84,12.84,0,1,1-9.57,4.25Z"/><path class="cls-1" d="M85.13,88.52a3.11,3.11,0,1,0-3.28-3A3.11,3.11,0,0,0,85.13,88.52Z"/></svg>