<svg id="Layer_1" data-name="Layer 1" xmlns="http://www.w3.org/2000/svg" viewBox="0 0 256 256"><defs><style>.cls-1{fill:#231f20;}</style></defs><title>yoga triangle</title><path class="cls-1" d="M235.47,187.12H170.34l-8.58-10.07v-51h9.68a17.68,17.68,0,0,0,16.24,14.32c.41,0,.82,0,1.23,0a17.91,17.91,0,1,0-17.46-21.36h-9.69V65.38a3.5,3.5,0,0,0-7,0v53.68h-44l-.12,0a3.48,3.48,0,0,0-1.29.3,2.64,2.64,0,0,0-.35.23,3.68,3.68,0,0,0-.8.61s-.08,0-.11.09c-20.4,24.36-51,60.7-56.73,66.81H20.53a3.5,3.5,0,0,0,0,7H235.47a3.5,3.5,0,1,0,0-7Zm-53.73-72.73a10.86,10.86,0,1,1-3.68,7.44A10.84,10.84,0,0,1,181.74,114.39Zm-27,54.43-36.43-42.76h36.43Zm-44-40.83,50.37,59.13H60.65C71.44,174.81,94.52,147.38,110.77,128Z"/><path class="cls-1" d="M190.88,119.73a2.42,2.42,0,1,0-3.42-.23A2.42,2.42,0,0,0,190.88,119.73Z"/><path class="cls-1" d="M190.88,129a2.42,2.42,0,1,0-3.42-.23A2.42,2.42,0,0,0,190.88,129Z"/></svg>