<svg id="Layer_1" data-name="Layer 1" xmlns="http://www.w3.org/2000/svg" viewBox="0 0 256 256"><defs><style>.cls-1{fill:#231f20;}</style></defs><title>yoga seated spinal twist 1</title><path class="cls-1" d="M235.47,189.71H20.53a3.51,3.51,0,0,0,0,7H235.47a3.51,3.51,0,0,0,0-7Z"/><path class="cls-1" d="M113.67,97.17a21.31,21.31,0,1,0-3.18-30h0A21.34,21.34,0,0,0,113.67,97.17Zm2.27-25.57a14.31,14.31,0,1,1-3.1,10.5A14.14,14.14,0,0,1,115.94,71.6Z"/><path class="cls-1" d="M123,81.7a3.4,3.4,0,1,0-4.78.51A3.39,3.39,0,0,0,123,81.7Z"/><path class="cls-1" d="M67.4,183.55A3.51,3.51,0,0,0,70.32,182l40.81-61.45h12.43v62.87a3.5,3.5,0,0,0,2.34,3.3,3.64,3.64,0,0,0,1.17.2,3.52,3.52,0,0,0,2.73-1.31l7.87-9.8,24.38.07-22.19,6.81a3.5,3.5,0,0,0,1,6.85,3.72,3.72,0,0,0,1-.15l41.33-12.69,2.16,4.79a3.5,3.5,0,1,0,6.39-2.87L171,132.34V76.17a3.5,3.5,0,0,0-7,0v55.69l-.49.6-14.26-17.63a3.53,3.53,0,0,0-2.73-1.3H109.25a3.51,3.51,0,0,0-2.92,1.57l-41.85,63a3.5,3.5,0,0,0,2.92,5.44Zm75.89-14.74,20.24-25.19,1.25,1.55a3.51,3.51,0,0,0,3.89,1.1,3.67,3.67,0,0,0,.73-.4l10.36,23ZM159,138.05l-24.7,30.73h-3.75V120.54h14.28Z"/></svg>