<svg id="Layer_1" data-name="Layer 1" xmlns="http://www.w3.org/2000/svg" viewBox="0 0 256 256"><defs><style>.cls-1{fill:#231f20;}</style></defs><title>yoga locust</title><path class="cls-1" d="M235.47,154.85H20.53a3.51,3.51,0,1,0,0,7H235.47a3.51,3.51,0,0,0,0-7Z"/><path class="cls-1" d="M238.25,105.21a21.29,21.29,0,0,0-37.87,19.45l-10,5H115.11a3.5,3.5,0,0,0,0,7H176.2l-9.85,4.87H108.19l-88.54-27.6a3.5,3.5,0,1,0-2.08,6.69l89,27.76a3.7,3.7,0,0,0,1,.16h59.52a3.47,3.47,0,0,0,1.55-.37l35.72-17.66a21.31,21.31,0,0,0,33.81-25.26Zm-4.94,14.25a14.31,14.31,0,1,1-1.2-10.88A14.23,14.23,0,0,1,233.31,119.46Z"/><path class="cls-1" d="M227.07,110.58a3.4,3.4,0,1,0,2.31,4.21A3.39,3.39,0,0,0,227.07,110.58Z"/></svg>