<svg id="Layer_1" data-name="Layer 1" xmlns="http://www.w3.org/2000/svg" viewBox="0 0 256 256"><defs><style>.cls-1{fill:#231f20;}</style></defs><title>yoga reverse warrior</title><path class="cls-1" d="M118.76,80.87a3.39,3.39,0,1,0,4.76-.65A3.39,3.39,0,0,0,118.76,80.87Z"/><path class="cls-1" d="M235.47,218.64H20.53a3.5,3.5,0,0,0,0,7H235.47a3.5,3.5,0,1,0,0-7Z"/><path class="cls-1" d="M50.21,213.46a3.44,3.44,0,0,0,1.18-.2l108.23-38.73h42.43V210a3.51,3.51,0,0,0,7,0V171a3.51,3.51,0,0,0-3.51-3.5h-43V144.74c0-1.18.48-23.4-12.91-38.1,3.46-9,11.8-41.79-31.09-75.53a3.5,3.5,0,0,0-4.33,5.51c36.44,28.67,33,55.05,29.84,65A36,36,0,0,0,139.77,99a21.37,21.37,0,1,0-4.14,5.76,29.74,29.74,0,0,1,5.46,3.48L104,178.94a3.5,3.5,0,1,0,6.21,3.25l36-68.62c9.66,12.75,9.31,30.74,9.31,31.06v23.93L49,206.66a3.5,3.5,0,0,0,1.18,6.8ZM112,101A14.31,14.31,0,1,1,132,98.29,14.34,14.34,0,0,1,112,101Z"/></svg>