<svg id="Layer_1" data-name="Layer 1" xmlns="http://www.w3.org/2000/svg" viewBox="0 0 256 256"><defs><style>.cls-1{fill:#231f20;}</style></defs><title>yoga cow</title><path class="cls-1" d="M235.47,173.78H20.53a3.5,3.5,0,0,0,0,7H235.47a3.5,3.5,0,0,0,0-7Z"/><path class="cls-1" d="M181.47,112.09a19.87,19.87,0,1,0-9-12.23A19.74,19.74,0,0,0,181.47,112.09Zm-.76-23.64a12.75,12.75,0,0,1,7.91-5.85,13.31,13.31,0,0,1,3.12-.38,12.85,12.85,0,1,1-11,6.23Z"/><path class="cls-1" d="M196.92,93.79a3.12,3.12,0,1,0-3.78-2.28A3.13,3.13,0,0,0,196.92,93.79Z"/><path class="cls-1" d="M47.92,166.92h51a3.5,3.5,0,0,0,3.5-3.5v-47.2a98.28,98.28,0,0,0,61.91-.09v47.29a3.5,3.5,0,1,0,7,0v-52.3a3.51,3.51,0,0,0-4.79-3.26c-35.22,13.91-65.85.22-66.16.08a3.51,3.51,0,0,0-5,3.18v48.8H47.92a3.5,3.5,0,1,0,0,7Z"/></svg>